<svg xmlns="http://www.w3.org/2000/svg" viewBox="0 0 100 100" width="32" height="32">
  <defs>
    <radialGradient id="starGradient" cx="50%" cy="50%" r="50%">
      <stop offset="0%" style="stop-color:#ffffff;stop-opacity:1" />
      <stop offset="30%" style="stop-color:#ffeb3b;stop-opacity:1" />
      <stop offset="70%" style="stop-color:#ff9800;stop-opacity:0.8" />
      <stop offset="100%" style="stop-color:#1a237e;stop-opacity:0.3" />
    </radialGradient>
    <filter id="glow">
      <feGaussianBlur stdDeviation="3" result="coloredBlur"/>
      <feMerge> 
        <feMergeNode in="coloredBlur"/>
        <feMergeNode in="SourceGraphic"/>
      </feMerge>
    </filter>
  </defs>
  
  <!-- Dark space background -->
  <rect width="100" height="100" fill="#0a0a2e"/>
  
  <!-- Small stars -->
  <circle cx="15" cy="20" r="0.5" fill="white" opacity="0.7"/>
  <circle cx="85" cy="15" r="0.3" fill="white" opacity="0.5"/>
  <circle cx="20" cy="80" r="0.4" fill="white" opacity="0.6"/>
  <circle cx="80" cy="85" r="0.3" fill="white" opacity="0.4"/>
  <circle cx="25" cy="35" r="0.2" fill="white" opacity="0.3"/>
  <circle cx="75" cy="25" r="0.2" fill="white" opacity="0.4"/>
  <circle cx="90" cy="70" r="0.3" fill="white" opacity="0.5"/>
  
  <!-- Main bright star -->
  <g filter="url(#glow)">
    <!-- Star rays -->
    <line x1="50" y1="10" x2="50" y2="90" stroke="url(#starGradient)" stroke-width="1" opacity="0.8"/>
    <line x1="10" y1="50" x2="90" y2="50" stroke="url(#starGradient)" stroke-width="1" opacity="0.8"/>
    <line x1="25" y1="25" x2="75" y2="75" stroke="url(#starGradient)" stroke-width="0.8" opacity="0.6"/>
    <line x1="75" y1="25" x2="25" y2="75" stroke="url(#starGradient)" stroke-width="0.8" opacity="0.6"/>
    
    <!-- Additional rays -->
    <line x1="35" y1="15" x2="65" y2="85" stroke="url(#starGradient)" stroke-width="0.5" opacity="0.4"/>
    <line x1="65" y1="15" x2="35" y2="85" stroke="url(#starGradient)" stroke-width="0.5" opacity="0.4"/>
    <line x1="15" y1="35" x2="85" y2="65" stroke="url(#starGradient)" stroke-width="0.5" opacity="0.4"/>
    <line x1="85" y1="35" x2="15" y2="65" stroke="url(#starGradient)" stroke-width="0.5" opacity="0.4"/>
    
    <!-- Central bright core -->
    <circle cx="50" cy="50" r="3" fill="url(#starGradient)"/>
  </g>
</svg>
